<?xml version="1.0" encoding="UTF-8" standalone="no"?>
<svg
   xmlns:dc="http://purl.org/dc/elements/1.1/"
   xmlns:cc="http://creativecommons.org/ns#"
   xmlns:rdf="http://www.w3.org/1999/02/22-rdf-syntax-ns#"
   xmlns:svg="http://www.w3.org/2000/svg"
   xmlns="http://www.w3.org/2000/svg"
   xmlns:sodipodi="http://sodipodi.sourceforge.net/DTD/sodipodi-0.dtd"
   xmlns:inkscape="http://www.inkscape.org/namespaces/inkscape"
   width="333.34354mm"
   height="504.02664mm"
   viewBox="0 0 333.34354 504.02664"
   version="1.1"
   id="svg8"
   inkscape:version="1.0.1 (3bc2e813f5, 2020-09-07)"
   sodipodi:docname="Skibidi Toilet.svg">
  <defs
     id="defs2" />
  <sodipodi:namedview
     id="base"
     pagecolor="#ffffff"
     bordercolor="#666666"
     borderopacity="1.0"
     inkscape:pageopacity="0.0"
     inkscape:pageshadow="2"
     inkscape:zoom="0.175"
     inkscape:cx="-156.25337"
     inkscape:cy="898.02735"
     inkscape:document-units="mm"
     inkscape:current-layer="layer1"
     inkscape:document-rotation="0"
     showgrid="false"
     inkscape:pagecheckerboard="true"
     inkscape:window-width="1366"
     inkscape:window-height="705"
     inkscape:window-x="-8"
     inkscape:window-y="-8"
     inkscape:window-maximized="1" />
  <metadata
     id="metadata5">
    <rdf:RDF>
      <cc:Work
         rdf:about="">
        <dc:format>image/svg+xml</dc:format>
        <dc:type
           rdf:resource="http://purl.org/dc/dcmitype/StillImage" />
        <dc:title></dc:title>
      </cc:Work>
    </rdf:RDF>
  </metadata>
  <g
     inkscape:label="Layer 1"
     inkscape:groupmode="layer"
     id="layer1"
     transform="translate(174.07774,190.03435)">
    <g
       id="g1638">
      <g
         id="g1588">
        <path
           style="fill:#b3b3b3;fill-opacity:1;stroke:none;stroke-width:2.64583;stroke-linecap:butt;stroke-linejoin:miter;stroke-miterlimit:4;stroke-dasharray:none;stroke-opacity:1"
           d="M 24.199695,181.68303 -4.1113224,266.63182 C 37.862322,289.31465 85.988597,293.49784 149.83593,268.76996 L 112.34222,104.86834 Z"
           id="path882"
           sodipodi:nodetypes="ccccc" />
        <path
           style="fill:#e6e6e6;stroke:none;stroke-width:2.64583;stroke-linecap:butt;stroke-linejoin:miter;stroke-miterlimit:4;stroke-dasharray:none;stroke-opacity:1"
           d="m -64.698779,210.11677 -28.311017,84.94879 c 41.973644,22.68283 90.0999194,26.86602 153.947247,2.13814 L 31.003266,198.31398 Z"
           id="path24"
           sodipodi:nodetypes="ccccc" />
        <path
           style="fill:#e6e6e6;stroke:none;stroke-width:2.64583;stroke-linecap:butt;stroke-linejoin:miter;stroke-miterlimit:4;stroke-dasharray:none;stroke-opacity:1"
           d="m 53.453904,130.42753 48.643056,12.82894 c 0,0 42.76312,-25.65787 46.50489,-37.41774 3.74177,-11.759859 6.41447,-113.8568156 0,-121.340363 -6.41447,-7.483546 -76.973617,-5.87993 -76.973617,-5.87993 0,0 -40.09043,118.133131 -18.174329,151.809093 z"
           id="path861" />
        <path
           style="fill:#808080;fill-opacity:1;stroke:none;stroke-width:0.264583px;stroke-linecap:butt;stroke-linejoin:miter;stroke-opacity:1"
           d="m 122.38259,2.1059225 27.67396,-11.4041351 c 0,0 -0.84514,106.0968976 -2.26786,116.0387026 -0.71032,4.96363 -45.63856,39.60239 -45.69173,39.691 0,0 -45.837961,-11.29129 -43.351391,-18.87656 2.486573,-7.58527 0.974669,-38.579335 15.337763,-34.799572 14.363094,3.779761 36.663688,3.02381 38.175598,-3.401785 1.5119,-6.425596 10.12366,-87.2476505 10.12366,-87.2476505 z"
           id="path1756"
           sodipodi:nodetypes="ccscsssc" />
        <path
           style="fill:#b3b3b3;fill-opacity:1;stroke:none;stroke-width:0.264583px;stroke-linecap:butt;stroke-linejoin:miter;stroke-opacity:1"
           d="m 122.38259,-1.0690776 27.67396,-11.4041364 c 0,0 -0.84514,106.096897 -2.26786,116.038684 -0.71032,4.96363 -45.63856,39.60239 -45.69173,39.691 0,0 -45.837961,-11.29129 -43.351391,-18.87656 2.486573,-7.58527 0.974669,-38.579317 15.337763,-34.799554 14.363094,3.779761 36.663688,3.02381 38.175598,-3.401785 1.5119,-6.425596 10.12366,-87.2476486 10.12366,-87.2476486 z"
           id="path871"
           sodipodi:nodetypes="ccscsssc" />
        <path
           style="fill:#e6e6e6;stroke:none;stroke-width:2.64583;stroke-linecap:butt;stroke-linejoin:miter;stroke-miterlimit:4;stroke-dasharray:none;stroke-opacity:1"
           d="m -143.52373,115.46043 c 0,0 2.36631,75.99039 78.824951,94.65634 C 11.759859,228.78271 63.075608,187.08867 72.69731,143.791 82.319012,100.49334 73.766388,90.871639 70.559154,88.733481 67.35192,86.595325 -135.50565,110.64958 -143.52373,115.46043 Z"
           id="path849"
           sodipodi:nodetypes="csssc" />
        <g
           id="g1648"
           transform="translate(5.8208336)"
           style="fill:#808080;fill-opacity:1">
          <path
             id="path1644"
             style="fill:#808080;fill-opacity:1;stroke:none;stroke-width:2.64583;stroke-linecap:butt;stroke-linejoin:miter;stroke-miterlimit:4;stroke-dasharray:none;stroke-opacity:1"
             d="m -63.90625,211.08594 c -1.526693,4.58073 -3.053385,9.16146 -4.580078,13.74218 13.852746,-1.06555 27.811849,-1.29108 41.653288,0.0561 8.130498,0.83898 16.32306,2.22037 23.8851954,5.44 4.2139845,1.81548 8.2073698,4.4851 10.781829,8.35941 5.1960986,7.38794 7.8937456,16.24061 9.2181446,25.09698 1.078229,7.47285 1.286203,15.1555 -0.165204,22.59253 -0.614941,2.90887 -1.468687,5.96854 -3.59005,8.1601 -1.445659,1.36624 -3.5409225,1.30402 -5.3868519,1.4769 -7.54896241,0.54115 -15.1248961,0.52025 -22.6893201,0.62494 -24.579343,0.18997 -49.159227,-0.10205 -73.736328,-0.41629 10.871516,5.52329 22.340476,9.8345 34.239815,12.6741 17.637291,4.21977 36.024391,4.97605 54.02362424,2.97814 C 20.263829,309.597 40.357836,303.96002 59.640625,296.56641 49.84375,264.20247 40.046875,231.83854 30.25,199.47461 c -31.3854167,3.87044 -62.770833,7.74088 -94.15625,11.61133 z" />
          <path
             id="path1646"
             style="fill:#808080;fill-opacity:1;stroke:none;stroke-width:2.6355;stroke-linecap:butt;stroke-linejoin:miter;stroke-miterlimit:4;stroke-dasharray:none;stroke-opacity:1"
             d="M 68.3058,88.608544 C 57.378536,88.21589 -49.827316,100.65666 -107.37639,108.98921 c 4.71424,2.08127 9.724785,4.30735 15.35904,6.92103 3.346707,1.5525 6.809918,3.18507 10.336268,4.88135 3.526348,1.69628 7.11569,3.45605 10.71364,5.26325 3.59795,1.80719 7.204433,3.66168 10.765942,5.54695 3.561507,1.88526 7.078189,3.80146 10.495214,5.73194 3.417029,1.93049 6.734401,3.8754 9.898903,5.81826 1.582253,0.97142 3.126538,1.94257 4.625403,2.91093 1.498864,0.96835 2.952705,1.93373 4.354677,2.89491 1.401969,0.96118 2.751872,1.91814 4.043443,2.86804 1.291571,0.9499 2.524553,1.89271 3.69222,2.82722 1.167667,0.93451 2.270231,1.86052 3.300489,2.77554 1.030258,0.91502 1.988394,1.81953 2.867738,2.71095 0.879345,0.89141 1.679558,1.76972 2.394483,2.63343 0.714925,0.86371 1.344231,1.71265 1.881232,2.54455 0.537001,0.83189 0.981905,1.64676 1.327476,2.44274 0.172786,0.39799 0.320609,0.79153 0.443005,1.17977 0.122396,0.38824 0.219379,0.77131 0.289697,1.14929 0.140636,0.75595 0.193366,1.51183 0.163563,2.26704 -0.0298,0.75522 -0.142211,1.50991 -0.331741,2.26291 -0.18953,0.753 -0.456199,1.5043 -0.794743,2.25361 -0.338544,0.74931 -0.749108,1.49655 -1.225954,2.24069 -0.476845,0.74414 -1.019916,1.48511 -1.624351,2.2226 -0.604435,0.7375 -1.27016,1.47153 -1.991471,2.2009 -0.721311,0.72938 -1.4983,1.45425 -2.325775,2.17403 -0.827476,0.71978 -1.705364,1.43432 -2.628291,2.14302 -0.922927,0.70871 -1.890837,1.41173 -2.898503,2.10789 -1.007665,0.69615 -2.055233,1.38544 -3.136924,2.06757 -1.081693,0.68213 -2.197527,1.35702 -3.342535,2.02365 -1.145006,0.66663 -2.319256,1.32491 -3.516863,1.97456 -2.395214,1.29929 -4.884628,2.5633 -7.425972,3.78581 -2.541343,1.22252 -5.134404,2.40384 -7.736177,3.53777 -2.601774,1.13393 -5.212486,2.22053 -7.788989,3.25406 -2.576506,1.03353 -5.118876,2.01391 -7.584408,2.93522 -0.349991,0.13079 -0.664348,0.238 -1.011117,0.36639 0.258163,0.0653 0.496401,0.14586 0.756287,0.20981 C 10.8313,228.78283 61.747312,187.08889 71.294032,143.79122 80.840751,100.49356 72.354565,90.871759 69.172326,88.7336 69.07288,88.666785 68.780203,88.625592 68.3058,88.608544 Z" />
        </g>
        <g
           id="g1642">
          <path
             id="path888"
             style="fill:#b3b3b3;fill-opacity:1;stroke:none;stroke-width:2.64583;stroke-linecap:butt;stroke-linejoin:miter;stroke-miterlimit:4;stroke-dasharray:none;stroke-opacity:1"
             d="m -63.90625,211.08594 c -1.526693,4.58073 -3.053385,9.16146 -4.580078,13.74218 13.852746,-1.06555 27.811849,-1.29108 41.653288,0.0561 8.130498,0.83898 16.32306,2.22037 23.8851954,5.44 4.2139845,1.81548 8.2073698,4.4851 10.781829,8.35941 5.1960986,7.38794 7.8937456,16.24061 9.2181446,25.09698 1.078229,7.47285 1.286203,15.1555 -0.165204,22.59253 -0.614941,2.90887 -1.468687,5.96854 -3.59005,8.1601 -1.445659,1.36624 -3.5409225,1.30402 -5.3868519,1.4769 -7.54896241,0.54115 -15.1248961,0.52025 -22.6893201,0.62494 -24.579343,0.18997 -49.159227,-0.10205 -73.736328,-0.41629 10.871516,5.52329 22.340476,9.8345 34.239815,12.6741 17.637291,4.21977 36.024391,4.97605 54.02362424,2.97814 C 20.263829,309.597 40.357836,303.96002 59.640625,296.56641 49.84375,264.20247 40.046875,231.83854 30.25,199.47461 c -31.3854167,3.87044 -62.770833,7.74088 -94.15625,11.61133 z" />
          <path
             id="path897"
             style="fill:#b3b3b3;fill-opacity:1;stroke:none;stroke-width:2.6355;stroke-linecap:butt;stroke-linejoin:miter;stroke-miterlimit:4;stroke-dasharray:none;stroke-opacity:1"
             d="M 68.3058,88.608544 C 57.378536,88.21589 -49.827316,100.65666 -107.37639,108.98921 c 4.71424,2.08127 9.724785,4.30735 15.35904,6.92103 3.346707,1.5525 6.809918,3.18507 10.336268,4.88135 3.526348,1.69628 7.11569,3.45605 10.71364,5.26325 3.59795,1.80719 7.204433,3.66168 10.765942,5.54695 3.561507,1.88526 7.078189,3.80146 10.495214,5.73194 3.417029,1.93049 6.734401,3.8754 9.898903,5.81826 1.582253,0.97142 3.126538,1.94257 4.625403,2.91093 1.498864,0.96835 2.952705,1.93373 4.354677,2.89491 1.401969,0.96118 2.751872,1.91814 4.043443,2.86804 1.291571,0.9499 2.524553,1.89271 3.69222,2.82722 1.167667,0.93451 2.270231,1.86052 3.300489,2.77554 1.030258,0.91502 1.988394,1.81953 2.867738,2.71095 0.879345,0.89141 1.679558,1.76972 2.394483,2.63343 0.714925,0.86371 1.344231,1.71265 1.881232,2.54455 0.537001,0.83189 0.981905,1.64676 1.327476,2.44274 0.172786,0.39799 0.320609,0.79153 0.443005,1.17977 0.122396,0.38824 0.219379,0.77131 0.289697,1.14929 0.140636,0.75595 0.193366,1.51183 0.163563,2.26704 -0.0298,0.75522 -0.142211,1.50991 -0.331741,2.26291 -0.18953,0.753 -0.456199,1.5043 -0.794743,2.25361 -0.338544,0.74931 -0.749108,1.49655 -1.225954,2.24069 -0.476845,0.74414 -1.019916,1.48511 -1.624351,2.2226 -0.604435,0.7375 -1.27016,1.47153 -1.991471,2.2009 -0.721311,0.72938 -1.4983,1.45425 -2.325775,2.17403 -0.827476,0.71978 -1.705364,1.43432 -2.628291,2.14302 -0.922927,0.70871 -1.890837,1.41173 -2.898503,2.10789 -1.007665,0.69615 -2.055233,1.38544 -3.136924,2.06757 -1.081693,0.68213 -2.197527,1.35702 -3.342535,2.02365 -1.145006,0.66663 -2.319256,1.32491 -3.516863,1.97456 -2.395214,1.29929 -4.884628,2.5633 -7.425972,3.78581 -2.541343,1.22252 -5.134404,2.40384 -7.736177,3.53777 -2.601774,1.13393 -5.212486,2.22053 -7.788989,3.25406 -2.576506,1.03353 -5.118876,2.01391 -7.584408,2.93522 -0.349991,0.13079 -0.664348,0.238 -1.011117,0.36639 0.258163,0.0653 0.496401,0.14586 0.756287,0.20981 C 10.8313,228.78283 61.747312,187.08889 71.294032,143.79122 80.840751,100.49356 72.354565,90.871759 69.172326,88.7336 69.07288,88.666785 68.780203,88.625592 68.3058,88.608544 Z" />
        </g>
        <path
           style="fill:#e6e6e6;stroke:none;stroke-width:2.64583;stroke-linecap:butt;stroke-linejoin:miter;stroke-miterlimit:4;stroke-dasharray:none;stroke-opacity:1"
           d="m 74.274066,-21.381563 48.108524,20.3124854 c 0,0 36.8832,-13.3634774 36.8832,-18.7088674 0,-5.34539 -2.6727,-28.330569 -8.01809,-31.003266 -5.34539,-2.672694 -73.766397,-17.105249 -73.766397,-17.105249 z"
           id="path863" />
        <path
           style="fill:#b3b3b3;fill-opacity:1;stroke:none;stroke-width:0.263802px;stroke-linecap:butt;stroke-linejoin:miter;stroke-opacity:1"
           d="m 99.156992,-37.203459 25.520308,5.500611 c 0,0 28.20087,-9.61808 28.46814,-13.60349 0.26726,-3.985408 7.75081,25.904376 5.34539,27.764233 -2.40543,1.859858 -36.10824,16.4730274 -36.10824,16.4730274 L 102.6315,-10.634061 Z"
           id="path869"
           sodipodi:nodetypes="ccssccc" />
        <path
           style="fill:#b3b3b3;fill-opacity:1;stroke:none;stroke-width:2.64583;stroke-linecap:butt;stroke-linejoin:miter;stroke-miterlimit:4;stroke-dasharray:none;stroke-opacity:1"
           d="m 78.459055,98.093288 c 0,0 58.264815,-131.229337 14.967093,-200.184878 C -15.453676,-182.08306 -60.064543,7.8577975 -4.3945033,72.168143 15.383445,92.480626 78.459055,98.093288 78.459055,98.093288 Z"
           id="path880"
           sodipodi:nodetypes="cccc" />
        <path
           style="fill:#e6e6e6;stroke:none;stroke-width:2.64583;stroke-linecap:butt;stroke-linejoin:miter;stroke-miterlimit:4;stroke-dasharray:none;stroke-opacity:1"
           d="m 70.521551,96.505787 c 0,0 58.264779,-131.229337 14.967093,-200.184887 C -23.39118,-183.67057 -68.002047,6.2702974 -12.332004,70.580642 7.4459415,90.893125 70.521551,96.505787 70.521551,96.505787 Z"
           id="path855"
           sodipodi:nodetypes="cccc" />
        <path
           style="fill:#b3b3b3;fill-opacity:1;stroke:none;stroke-width:2.34474;stroke-linecap:butt;stroke-linejoin:miter;stroke-miterlimit:4;stroke-dasharray:none;stroke-opacity:1"
           d="m 72.638219,102.85577 c 0,0 -16.168573,-22.53718 -67.9513141,-26.693012 C -47.095829,72.006926 -103.03627,87.442875 -132.89639,104.36302 c -29.86012,16.92017 -19.15406,24.26238 -5.60828,29.34821 13.54578,5.08582 160.787652,13.05457 211.142889,-30.85546 z"
           id="path878" />
        <path
           style="fill:#b3b3b3;fill-opacity:1;stroke:none;stroke-width:2.26395;stroke-linecap:butt;stroke-linejoin:miter;stroke-miterlimit:4;stroke-dasharray:none;stroke-opacity:1"
           d="m 62.241966,93.474137 c 0,0 46.964764,-119.19938 12.064335,-181.833688 C -13.457126,-161.0181 -49.416065,11.510647 -4.5427882,69.925583 11.399377,88.375995 62.241966,93.474137 62.241966,93.474137 Z"
           id="path908"
           sodipodi:nodetypes="cccc" />
        <path
           style="fill:#e6e6e6;stroke:none;stroke-width:2.34474;stroke-linecap:butt;stroke-linejoin:miter;stroke-miterlimit:4;stroke-dasharray:none;stroke-opacity:1"
           d="m 70.521551,96.505787 c 0,0 -16.168573,-22.537199 -67.9513129,-26.693031 C -49.212497,65.656924 -105.15295,81.092873 -135.01307,98.013048 c -29.86012,16.920162 -19.15406,24.262382 -5.60828,29.348202 13.54578,5.08582 160.787664,13.05458 211.142901,-30.855463 z"
           id="path851" />
        <g
           id="g906"
           transform="matrix(1.0894228,0,0,0.99956846,7.9748469,0.04300652)"
           style="stroke:none">
          <path
             style="fill:#b3b3b3;fill-opacity:1;stroke:none;stroke-width:2.53624;stroke-linecap:butt;stroke-linejoin:miter;stroke-miterlimit:4;stroke-dasharray:none;stroke-opacity:1"
             d="m 32.590851,90.661199 c 0,0 -13.367711,-20.866712 -98.00426,-5.449066 -85.573061,15.588247 -60.421521,31.011257 -36.715471,33.602607 23.819457,2.60374 120.553924,-1.81635 134.719731,-28.153541 z"
             id="path859"
             sodipodi:nodetypes="cssc" />
          <path
             style="fill:#000000;stroke:none;stroke-width:0.241399px;stroke-linecap:butt;stroke-linejoin:miter;stroke-opacity:1"
             d="m 32.590851,90.661199 c 0,0 -12.795326,-14.395986 -97.431875,-0.42874 -85.573056,14.121811 -60.421516,28.093911 -36.715456,30.441481 23.819442,2.3588 119.981524,-6.1532 134.147331,-30.012741 z"
             id="path853"
             sodipodi:nodetypes="cssc" />
        </g>
        <path
           style="fill:#808080;stroke:none;stroke-width:0.166309px;stroke-linecap:butt;stroke-linejoin:miter;stroke-opacity:1"
           d="M 122.38259,-1.0690776 102.09696,143.25647 c 0,0 14.95008,-63.881471 16.44347,-80.134446 1.4934,-16.252976 3.84216,-64.1911016 3.84216,-64.1911016 z"
           id="path865"
           sodipodi:nodetypes="ccsc" />
        <path
           style="fill:#cf7b61;fill-opacity:1;stroke:none;stroke-width:2.64583;stroke-linecap:butt;stroke-linejoin:miter;stroke-miterlimit:4;stroke-dasharray:none;stroke-opacity:1"
           d="m -6.047619,111.125 c 0,2.89322 -63.877975,11.94844 -74.839287,9.4494 -10.693432,-2.43796 -27.970234,-140.229162 -27.970234,-140.229162 l 94.494045,-24.946428 z"
           id="path1522"
           sodipodi:nodetypes="csccc" />
        <g
           id="g1520"
           transform="matrix(1.2515355,0,0,1.2515355,309.84623,-0.1628364)">
          <path
             style="fill:#d7916d;fill-opacity:1;stroke:none;stroke-width:2.11407;stroke-linecap:butt;stroke-linejoin:miter;stroke-miterlimit:4;stroke-dasharray:none;stroke-opacity:1"
             d="m -250.68421,-63.669286 c 7.79597,-34.419817 -17.12411,-43.452134 -26.22498,-71.700434 -8.03821,-24.94994 -71.32465,0.3582 -87.15462,9.63787 -15.83007,9.27966 -16.05781,47.920404 -20.97062,61.021138 -4.91269,13.100686 27.839,79.150101 33.84357,81.333554 6.00445,2.183469 31.11416,8.733813 42.03143,2.729301 37.3179,-19.19104253 55.08862,-46.569739 58.47522,-83.021429 z"
             id="path15405"
             sodipodi:nodetypes="csssscc" />
          <path
             id="path15591"
             style="fill:#1f1108;fill-opacity:1;stroke:none;stroke-width:10;stroke-linecap:butt;stroke-linejoin:miter;stroke-miterlimit:4;stroke-dasharray:none;stroke-opacity:1"
             d="m -258.35352,-620.19336 c -180.01936,-1.76716 -371.73911,126.96996 -344.14062,270.80664 68.06313,17.21981 94.20365,-20.38386 171.21289,15.56445 5.73742,2.67827 13.35216,2.59268 19.11914,-0.25195 135.59964,-66.88556 209.07182,-35.15057 356.183594,6.71484 4.901104,70.59032 13.733839,204.65941 11.378907,222.87891 -3.212288,24.854692 25.697265,24.853517 25.697265,24.853517 L 42.132812,-298.36328 c 0,0 -4.168894,-51.38323 -18.80664,-86.28711 -35.201824,-169.01152 -155.566542,-234.30498 -281.679692,-235.54297 z"
             transform="matrix(0.21140697,0,0,0.21140697,-253.86329,-20.593847)" />
          <path
             style="fill:#d7916d;fill-opacity:1;stroke:none;stroke-width:2.11407;stroke-linecap:butt;stroke-linejoin:miter;stroke-miterlimit:4;stroke-dasharray:none;stroke-opacity:1"
             d="m -252.77182,-72.898668 c 0,0 4.9128,-13.373628 13.64658,-6.823313 8.7338,6.550372 1.36472,32.478877 -2.72934,38.210434 -4.09393,5.731573 -17.19466,6.004481 -17.19466,6.004481 z"
             id="path15423" />
          <path
             style="fill:#bf593a;fill-opacity:1;stroke:none;stroke-width:0.549386px;stroke-linecap:butt;stroke-linejoin:miter;stroke-opacity:1"
             d="m -245.16346,-59.250757 c 0,0 2.49737,1.52615 1.38744,5.549634 -1.10993,4.023507 -4.856,6.104614 -7.07584,4.439719 -2.21986,-1.664895 2.91356,-19.146279 5.27219,-20.533693 2.35856,-1.387412 4.4397,-0.832448 4.301,0.971196 -0.13871,1.80363 -4.301,7.353284 -3.88479,9.573144 z"
             id="path18812" />
          <g
             id="g1377">
            <g
               id="g1369"
               transform="matrix(1.9320411,0,0,1.9320411,689.63154,132.49162)">
              <path
                 style="fill:#ffffff;stroke:#000000;stroke-width:1.36945;stroke-linecap:butt;stroke-linejoin:miter;stroke-miterlimit:4;stroke-dasharray:none;stroke-opacity:1"
                 d="m -522.55208,-107.53422 c 0,0 -4.53572,8.50446 0.37799,9.260412 4.91368,0.755952 14.93004,-0.377976 14.93004,-3.023812 0,-2.64583 -4.34671,-8.31547 -15.30803,-6.2366 z"
                 id="path1361" />
              <circle
                 style="fill:#000000;fill-opacity:1;stroke:none;stroke-width:2.64583;stroke-miterlimit:4;stroke-dasharray:none;stroke-opacity:1"
                 id="path1365"
                 cx="-517.5343"
                 cy="-104.00917"
                 r="2.4568453" />
            </g>
            <path
               style="fill:#1f1108;fill-opacity:1;stroke:#000000;stroke-width:0.484572px;stroke-linecap:butt;stroke-linejoin:miter;stroke-opacity:1"
               d="m -333.8388,-84.298214 c 0,0 2.97113,7.899005 5.73894,8.09023 2.76775,0.191197 20.93906,-10.499829 30.09046,-8.417581 9.1514,2.082247 23.7961,7.508963 22.74094,4.925581 -1.0551,-2.583356 -21.41907,-18.890778 -36.42048,-16.33457 -15.0014,2.556191 -22.14986,11.73634 -22.14986,11.73634 z"
               id="path1371" />
          </g>
          <g
             id="g1383"
             transform="matrix(-1.523025,0.32397024,0.32397024,1.523025,-1113.8477,259.33423)">
            <path
               style="fill:#ffffff;stroke:#000000;stroke-width:1.42368;stroke-linecap:butt;stroke-linejoin:miter;stroke-miterlimit:4;stroke-dasharray:none;stroke-opacity:1"
               d="m -522.39262,-107.54013 c 0,0 -4.71532,8.841209 0.39296,9.627094 5.10824,0.785886 15.52122,-0.392943 15.52122,-3.143544 0,-2.7506 -4.51883,-8.64474 -15.91418,-6.48355 z"
               id="path1379" />
            <circle
               style="fill:#000000;fill-opacity:1;stroke:none;stroke-width:2.7506;stroke-miterlimit:4;stroke-dasharray:none;stroke-opacity:1"
               id="circle1381"
               cx="-517.17615"
               cy="-103.8755"
               r="2.5541289" />
          </g>
          <path
             style="fill:#1f1108;fill-opacity:1;stroke:#000000;stroke-width:0.390534px;stroke-linecap:butt;stroke-linejoin:miter;stroke-opacity:1"
             d="m -341.05873,-85.118541 c 0,0 -1.01761,6.724981 -3.16741,7.339838 -2.14975,0.614824 -18.26687,-4.765877 -25.13174,-1.589911 -6.86488,3.175965 -17.49931,9.909503 -17.10072,7.696094 0.39855,-2.213377 13.71696,-18.483182 25.97118,-18.983607 12.25421,-0.500437 19.42869,5.537586 19.42869,5.537586 z"
             id="path1385" />
          <path
             style="fill:#3c1c12;fill-opacity:1;stroke:none;stroke-width:0.24043px;stroke-linecap:butt;stroke-linejoin:miter;stroke-opacity:1"
             d="m -333.8388,-83.911981 c 0,0 4.31914,20.919737 5.45306,29.971144 1.13395,9.051407 -5.66962,17.790696 -5.66962,17.790696 0,0 4.15774,-17.946756 3.40177,-21.06793 -0.75594,-3.121177 -3.18521,-26.69391 -3.18521,-26.69391 z"
             id="path1389" />
          <path
             style="fill:#3c1c12;fill-opacity:1;stroke:none;stroke-width:0.24043px;stroke-linecap:butt;stroke-linejoin:miter;stroke-opacity:1"
             d="m -341.05872,-84.060205 c 0,0 -4.31914,20.919736 -5.45306,29.971143 -1.13395,9.051407 5.66962,17.790697 5.66962,17.790697 0,0 -4.15774,-17.946756 -3.40177,-21.06793 0.75594,-3.121177 3.18521,-26.69391 3.18521,-26.69391 z"
             id="path1391" />
          <path
             style="fill:none;stroke:#3c1c12;stroke-width:3.09754;stroke-linecap:butt;stroke-linejoin:miter;stroke-miterlimit:4;stroke-dasharray:none;stroke-opacity:1"
             d="m -349.13971,-44.223218 c 0,0 -11.65618,5.480656 -8.54788,10.961309 3.10834,5.480656 17.09572,12.284227 24.0894,10.01637 6.99369,-2.267857 26.16161,-15.119047 19.94497,-19.276786 -6.21662,-4.157737 -10.62003,-3.590772 -10.62003,-3.590772"
             id="path1396" />
          <path
             style="fill:none;stroke:#3c1c12;stroke-width:2.64583;stroke-linecap:butt;stroke-linejoin:miter;stroke-miterlimit:4;stroke-dasharray:none;stroke-opacity:1"
             d="m -287.04747,-52.625236 c 22.82105,9.58724 5.15011,30.327869 -7.48354,52.65209766"
             id="path1398"
             sodipodi:nodetypes="cc" />
          <path
             style="fill:none;stroke:#3c1c12;stroke-width:2.37343;stroke-linecap:butt;stroke-linejoin:miter;stroke-miterlimit:4;stroke-dasharray:none;stroke-opacity:1"
             d="m -366.50558,-42.216318 c -13.73235,10.581787 -0.15334,30.453717 12.69864,46.0702243"
             id="path1400"
             sodipodi:nodetypes="cc" />
          <g
             id="g1426"
             transform="matrix(1.494087,-0.11728297,0.11728297,1.494087,228.10764,-113.4647)">
            <path
               style="fill:#000000;stroke:#000000;stroke-width:0.264583px;stroke-linecap:butt;stroke-linejoin:miter;stroke-opacity:1"
               d="m -400.58181,30.170778 c 0,0 10.23467,5.242436 24.13268,4.039722 13.89803,-1.202714 26.05878,-6.949009 26.05878,-6.949009 0,0 -5.07812,22.717911 -21.9161,25.123336 -16.83797,2.405427 -23.54294,-19.572033 -28.27536,-22.214049 z"
               id="path1402" />
            <path
               style="fill:#ffffff;stroke:#000000;stroke-width:0.249792px;stroke-linecap:butt;stroke-linejoin:miter;stroke-opacity:1"
               d="m -389.94624,35.391599 c 0,0 0.66817,8.695102 1.60361,9.7671 0.93546,1.071999 20.31248,3.096887 24.05427,1.548442 3.74177,-1.548442 4.40995,-9.868766 1.87088,-10.940763 -2.53905,-1.072 -25.12333,-0.613 -27.52876,-0.374779 z"
               id="path1404"
               sodipodi:nodetypes="csssc" />
            <path
               style="fill:none;stroke:#000000;stroke-width:1.41235;stroke-linecap:butt;stroke-linejoin:miter;stroke-miterlimit:4;stroke-dasharray:none;stroke-opacity:1"
               d="m -390.18786,40.663115 4.75623,1.878581 c 0,0 2.87355,0.751432 3.96352,0.09392 1.08997,-0.657504 1.08997,-0.657504 1.08997,-0.657504 0,0 0.79269,0.845363 3.07173,0.845363 2.27903,0 2.27903,0 2.27903,0 0,0 3.2699,0.845361 4.55802,-0.09392 1.28816,-0.93929 1.28816,-0.93929 1.28816,-0.93929 0,0 1.08997,0.751431 2.87353,0.09392 1.78359,-0.657503 1.78359,-0.657503 1.78359,-0.657503 0,0 2.37811,0.187859 3.46808,-1.033219 1.08999,-1.221078 1.08999,-1.221078 1.08999,-1.221078"
               id="path1406" />
            <path
               style="fill:none;stroke:#000000;stroke-width:0.264583px;stroke-linecap:butt;stroke-linejoin:miter;stroke-opacity:1"
               d="m -385.93524,34.989973 1.13395,12.378722"
               id="path1408" />
            <path
               style="fill:none;stroke:#000000;stroke-width:0.264583px;stroke-linecap:butt;stroke-linejoin:miter;stroke-opacity:1"
               d="m -381.17271,34.989973 1.13395,12.378722"
               id="path1410" />
            <path
               style="fill:none;stroke:#000000;stroke-width:0.264583px;stroke-linecap:butt;stroke-linejoin:miter;stroke-opacity:1"
               d="m -375.08356,34.97124 0.59739,12.416188"
               id="path1412" />
            <path
               style="fill:none;stroke:#000000;stroke-width:0.264583px;stroke-linecap:butt;stroke-linejoin:miter;stroke-opacity:1"
               d="m -369.26269,34.97124 0.59739,12.416188"
               id="path1414" />
            <path
               style="fill:none;stroke:#000000;stroke-width:0.264583px;stroke-linecap:butt;stroke-linejoin:miter;stroke-opacity:1"
               d="m -364.50016,34.97124 0.59739,12.416188"
               id="path1416" />
          </g>
        </g>
      </g>
    </g>
  </g>
</svg>
